<svg width="17" height="16" viewBox="0 0 17 16" fill="none" xmlns="http://www.w3.org/2000/svg">
<g id="vuesax/bold/close-circle">
<g id="close-circle">
<path id="Vector" d="M8.49967 1.33398C4.82634 1.33398 1.83301 4.32732 1.83301 8.00065C1.83301 11.674 4.82634 14.6673 8.49967 14.6673C12.173 14.6673 15.1663 11.674 15.1663 8.00065C15.1663 4.32732 12.173 1.33398 8.49967 1.33398ZM10.7397 9.53399C10.933 9.72732 10.933 10.0473 10.7397 10.2407C10.6397 10.3407 10.513 10.3873 10.3863 10.3873C10.2597 10.3873 10.133 10.3407 10.033 10.2407L8.49967 8.70732L6.96634 10.2407C6.86634 10.3407 6.73967 10.3873 6.61301 10.3873C6.48634 10.3873 6.35967 10.3407 6.25968 10.2407C6.06634 10.0473 6.06634 9.72732 6.25968 9.53399L7.79301 8.00065L6.25968 6.46732C6.06634 6.27398 6.06634 5.95398 6.25968 5.76065C6.45301 5.56732 6.77301 5.56732 6.96634 5.76065L8.49967 7.29398L10.033 5.76065C10.2263 5.56732 10.5463 5.56732 10.7397 5.76065C10.933 5.95398 10.933 6.27398 10.7397 6.46732L9.20634 8.00065L10.7397 9.53399Z" fill="#DB3939"/>
</g>
</g>
</svg>
