<svg width="16" height="16" viewBox="0 0 16 16" fill="none" xmlns="http://www.w3.org/2000/svg">
<g id="outline/eye">
<g id="Vector">
<path fill-rule="evenodd" clip-rule="evenodd" d="M5.11296 7.99966C5.11296 9.593 6.40629 10.8863 7.99962 10.8863C9.59296 10.8863 10.8863 9.593 10.8863 7.99966C10.8863 6.40633 9.59296 5.113 7.99962 5.113C6.40629 5.113 5.11296 6.40633 5.11296 7.99966ZM6.11296 7.99966C6.11296 6.95966 6.95962 6.113 7.99962 6.113C9.03962 6.113 9.88629 6.95966 9.88629 7.99966C9.88629 9.03966 9.03962 9.88633 7.99962 9.88633C6.95962 9.88633 6.11296 9.03966 6.11296 7.99966Z" fill="#484A4D"/>
<path fill-rule="evenodd" clip-rule="evenodd" d="M1.49973 9.99966C3.12639 12.5463 5.49306 14.013 7.99973 14.013C10.4997 14.013 12.8664 12.5463 14.4931 9.99966C15.1997 8.893 15.1997 7.09966 14.4931 5.99966C12.8664 3.45299 10.4997 1.98633 7.99973 1.98633C5.49973 1.98633 3.13306 3.45299 1.49973 5.99966C0.79306 7.10633 0.79306 8.89966 1.49973 9.99966ZM2.34639 6.53966C3.78639 4.27966 5.84639 2.98633 7.99973 2.98633C10.1531 2.98633 12.2131 4.27966 13.6531 6.53966C14.1531 7.31966 14.1531 8.67966 13.6531 9.45966C12.2131 11.7197 10.1531 13.013 7.99973 13.013C5.84639 13.013 3.78639 11.7197 2.34639 9.45966C1.84639 8.67966 1.84639 7.31966 2.34639 6.53966Z" fill="#484A4D"/>
</g>
</g>
</svg>
