<svg width="16" height="16" viewBox="0 0 16 16" fill="none" xmlns="http://www.w3.org/2000/svg">
<g id="Vector">
<path fill-rule="evenodd" clip-rule="evenodd" d="M10.0312 6.67633L6.66796 10.0396L6.66663 10.0409L1.68663 15.0209C1.58663 15.1209 1.45996 15.1676 1.33329 15.1676C1.20663 15.1676 1.07996 15.1209 0.979961 15.0209C0.786628 14.8276 0.786628 14.5076 0.979961 14.3142L3.22876 12.0654C2.58661 11.4883 2.00741 10.795 1.50656 10.0009C0.799896 8.90092 0.799896 7.10759 1.50656 6.00092C3.13323 3.45426 5.4999 1.98759 7.9999 1.98759C9.39276 1.98759 10.7676 2.44455 11.9873 3.30708L14.3135 0.980937C14.5068 0.787604 14.8268 0.787604 15.0201 0.980937C15.2135 1.17427 15.2135 1.49427 15.0201 1.6876L10.0401 6.6676C10.0372 6.67056 10.0342 6.67346 10.0312 6.67633ZM9.6565 5.63791C9.17319 5.29728 8.59877 5.11426 7.99995 5.11426C6.40661 5.11426 5.11328 6.40759 5.11328 8.00092C5.11328 8.5997 5.29627 9.17408 5.63685 9.65736L3.93628 11.3579C3.34918 10.8305 2.8156 10.1926 2.34656 9.46092C1.84656 8.68092 1.84656 7.32092 2.34656 6.54092C3.78656 4.28092 5.84656 2.98759 7.9999 2.98759C9.12975 2.98759 10.2541 3.34352 11.2688 4.0256L9.6565 5.63791ZM6.11328 8.00092C6.11328 6.96092 6.95995 6.11426 7.99995 6.11426C8.33328 6.11426 8.65328 6.20092 8.93328 6.36092L6.35995 8.93426C6.19995 8.65426 6.11328 8.33426 6.11328 8.00092Z" fill="#484A4D"/>
<path d="M8.00004 14.0143C7.11337 14.0143 6.24671 13.8343 5.41337 13.4809C5.16004 13.3743 5.04004 13.0809 5.14671 12.8276C5.25337 12.5743 5.54671 12.4543 5.80004 12.5609C6.50671 12.8609 7.24671 13.0143 7.99337 13.0143C10.1467 13.0143 12.2067 11.7209 13.6467 9.46093C14.1467 8.68093 14.1467 7.32093 13.6467 6.54094C13.44 6.21427 13.2134 5.90093 12.9734 5.6076C12.8 5.39427 12.8334 5.08093 13.0467 4.90093C13.26 4.7276 13.5734 4.75427 13.7534 4.97427C14.0134 5.29427 14.2667 5.64093 14.4934 6.00093C15.2 7.10093 15.2 8.89427 14.4934 10.0009C12.8667 12.5476 10.5 14.0143 8.00004 14.0143Z" fill="#484A4D"/>
<path d="M7.96672 10.4409C8.01339 10.6809 8.22672 10.8476 8.46005 10.8476C8.47142 10.8476 8.48202 10.8468 8.49236 10.8461C8.51235 10.8446 8.53142 10.8432 8.55339 10.8476C9.70005 10.6343 10.6201 9.72092 10.8334 8.56759C10.8867 8.29426 10.7067 8.03425 10.4334 7.98092C10.1601 7.93426 9.90005 8.10759 9.84672 8.38092C9.71339 9.11425 9.10005 9.72759 8.36672 9.86092C8.09339 9.90759 7.91339 10.1676 7.96672 10.4409Z" fill="#484A4D"/>
</g>
</svg>
