<svg width="17" height="16" viewBox="0 0 17 16" fill="none" xmlns="http://www.w3.org/2000/svg">
<g id="fill/check-circle">
<path id="Vector" d="M8.49967 1.33398C4.82634 1.33398 1.83301 4.32732 1.83301 8.00065C1.83301 11.674 4.82634 14.6673 8.49967 14.6673C12.173 14.6673 15.1663 11.674 15.1663 8.00065C15.1663 4.32732 12.173 1.33398 8.49967 1.33398ZM11.6863 6.46732L7.90634 10.2473C7.81301 10.3407 7.68634 10.394 7.55301 10.394C7.41967 10.394 7.29301 10.3407 7.19967 10.2473L5.31301 8.36065C5.11967 8.16732 5.11967 7.84732 5.31301 7.65398C5.50634 7.46065 5.82634 7.46065 6.01967 7.65398L7.55301 9.18732L10.9797 5.76065C11.173 5.56732 11.493 5.56732 11.6863 5.76065C11.8797 5.95398 11.8797 6.26732 11.6863 6.46732Z" fill="#159444"/>
</g>
</svg>
