<svg width="7" height="12" viewBox="0 0 7 12" fill="none" xmlns="http://www.w3.org/2000/svg">
<path d="M6.06713 11.8337C5.95688 11.8333 5.84781 11.811 5.74624 11.768C5.64468 11.7251 5.55264 11.6625 5.47547 11.5837L0.542132 6.62541C0.386923 6.46928 0.299805 6.25807 0.299805 6.03792C0.299805 5.81776 0.386923 5.60655 0.542132 5.45042L5.47547 0.508748C5.55316 0.43105 5.64541 0.369416 5.74692 0.327365C5.84844 0.285315 5.95725 0.263672 6.06713 0.263672C6.17701 0.263672 6.28582 0.285315 6.38734 0.327365C6.48886 0.369416 6.5811 0.43105 6.6588 0.508748C6.7365 0.586447 6.79813 0.678689 6.84018 0.780207C6.88223 0.881726 6.90387 0.990532 6.90387 1.10041C6.90387 1.2103 6.88223 1.3191 6.84018 1.42062C6.79813 1.52214 6.7365 1.61438 6.6588 1.69208L2.3338 6.00041L6.6838 10.3504C6.82741 10.4627 6.93023 10.619 6.97649 10.7954C7.02275 10.9717 7.0099 11.1584 6.93992 11.3267C6.86993 11.4951 6.74666 11.6358 6.58902 11.7274C6.43137 11.819 6.24804 11.8563 6.06713 11.8337Z" fill="#747678"/>
</svg>
