<svg width="17" height="16" viewBox="0 0 17 16" fill="none" xmlns="http://www.w3.org/2000/svg">
<g id="fill/loading">
<path id="Vector" opacity="0.6" d="M5.03308 10.7988C4.69967 10.7988 4.41635 10.9155 4.18299 11.1488C3.94973 11.3823 3.83301 11.6656 3.83301 11.999C3.83301 12.3325 3.94964 12.6157 4.18299 12.8492C4.41644 13.0826 4.69976 13.1992 5.03308 13.1992C5.36088 13.1992 5.64278 13.0826 5.87893 12.8492C6.115 12.616 6.23304 12.3325 6.23304 11.999C6.23304 11.6656 6.11503 11.3825 5.87893 11.1488C5.64275 10.9157 5.36088 10.7988 5.03308 10.7988Z" fill="#E07E1B"/>
<path id="Vector_2" opacity="0.7" d="M4.76724 8.26702C4.76724 7.90037 4.63674 7.58658 4.3756 7.32523C4.11449 7.06412 3.80055 6.93359 3.4339 6.93359C3.06722 6.93359 2.75333 7.06415 2.49219 7.32523C2.23111 7.58637 2.10059 7.90025 2.10059 8.26702C2.10059 8.63362 2.23108 8.94735 2.49219 9.20855C2.75333 9.46975 3.06722 9.60031 3.4339 9.60031C3.80055 9.60031 4.11449 9.46975 4.3756 9.20855C4.63674 8.94753 4.76724 8.63362 4.76724 8.26702Z" fill="#E07E1B"/>
<path id="Vector_3" opacity="0.1" d="M12.4997 5.20065C12.6829 5.20065 12.8401 5.13527 12.9705 5.00477C13.1011 4.87416 13.1665 4.71716 13.1665 4.53386C13.1665 4.35047 13.1011 4.19359 12.9705 4.06306C12.84 3.93245 12.6829 3.86719 12.4997 3.86719C12.3164 3.86719 12.1593 3.93257 12.0288 4.06306C11.8983 4.19362 11.833 4.35047 11.833 4.53386C11.833 4.71724 11.8983 4.87416 12.0288 5.00477C12.1593 5.13538 12.3164 5.20065 12.4997 5.20065Z" fill="#E07E1B"/>
<path id="Vector_4" opacity="0.85" d="M5.03311 3.06641C4.62749 3.06641 4.28167 3.20948 3.99555 3.49555C3.7094 3.78162 3.56641 4.12746 3.56641 4.53299C3.56641 4.93867 3.7094 5.28436 3.99555 5.57055C4.28176 5.8567 4.62758 5.99975 5.03311 5.99975C5.43864 5.99975 5.78448 5.85661 6.07055 5.57055C6.35661 5.28436 6.49969 4.93858 6.49969 4.53299C6.49969 4.12746 6.35661 3.78162 6.07055 3.49555C5.78448 3.20948 5.43864 3.06641 5.03311 3.06641Z" fill="#E07E1B"/>
<path id="Vector_5" opacity="0.2" d="M14.6662 7.70006C14.5107 7.54449 14.3218 7.4668 14.0997 7.4668C13.8773 7.4668 13.6884 7.54449 13.5329 7.70006C13.3775 7.85563 13.2998 8.04456 13.2998 8.26691C13.2998 8.48903 13.3775 8.67822 13.5329 8.83344C13.6885 8.98907 13.8773 9.06677 14.0997 9.06677C14.3218 9.06677 14.5108 8.98907 14.6662 8.83344C14.8218 8.67805 14.8994 8.48903 14.8994 8.26691C14.8994 8.04468 14.8219 7.85572 14.6662 7.70006Z" fill="#E07E1B"/>
<path id="Vector_6" opacity="0.3" d="M12.4998 11.0664C12.2441 11.0664 12.0247 11.158 11.8413 11.3414C11.6581 11.5246 11.5664 11.7441 11.5664 11.9998C11.5664 12.2553 11.6581 12.4749 11.8413 12.6583C12.0247 12.8416 12.2441 12.9331 12.4998 12.9331C12.7553 12.9331 12.9748 12.8415 13.1581 12.6583C13.3415 12.4749 13.4331 12.2554 13.4331 11.9998C13.4331 11.7441 13.3415 11.5248 13.1581 11.3414C12.9748 11.158 12.7553 11.0664 12.4998 11.0664Z" fill="#E07E1B"/>
<path id="Vector_7" opacity="0.45" d="M8.76697 12.5332C8.47253 12.5332 8.2211 12.6376 8.01265 12.8459C7.80439 13.0543 7.7002 13.3056 7.7002 13.6001C7.7002 13.8945 7.80428 14.1458 8.01265 14.3542C8.2211 14.5625 8.47241 14.6668 8.76697 14.6668C9.06144 14.6668 9.31275 14.5625 9.52111 14.3542C9.72948 14.1458 9.83365 13.8945 9.83365 13.6001C9.83365 13.3056 9.72948 13.0543 9.52111 12.8459C9.31275 12.6376 9.06144 12.5332 8.76697 12.5332Z" fill="#E07E1B"/>
<path id="Vector_8" d="M8.76705 1.33398C8.32267 1.33398 7.94472 1.48947 7.63358 1.80058C7.32253 2.11171 7.16699 2.48957 7.16699 2.93398C7.16699 3.37842 7.32247 3.75611 7.63358 4.06727C7.94472 4.37833 8.32258 4.53389 8.76705 4.53389C9.21163 4.53389 9.58932 4.37841 9.90034 4.06727C10.2114 3.75625 10.3669 3.37842 10.3669 2.93398C10.3669 2.4896 10.2114 2.11183 9.90034 1.80058C9.58932 1.48955 9.16699 1.33398 8.76705 1.33398Z" fill="#E07E1B"/>
</g>
</svg>
