<svg width="20" height="20" viewBox="0 0 20 20" fill="none" xmlns="http://www.w3.org/2000/svg">
<g id="vuesax/bulk/moneys">
<g id="moneys">
<path id="Vector" opacity="0.4" d="M16.0831 6.60023V10.8919C16.0831 13.4586 14.6165 14.5586 12.4165 14.5586H5.09147C4.71647 14.5586 4.35813 14.5253 4.0248 14.4503C3.81647 14.4169 3.61647 14.3586 3.43314 14.2919C2.18314 13.8253 1.4248 12.7419 1.4248 10.8919V6.60023C1.4248 4.03356 2.89147 2.93359 5.09147 2.93359H12.4165C14.2831 2.93359 15.6248 3.72526 15.9831 5.53359C16.0415 5.86692 16.0831 6.20856 16.0831 6.60023Z" fill="#8F7235"/>
<path id="Vector_2" d="M18.5837 9.09984V13.3915C18.5837 15.9582 17.1171 17.0582 14.9171 17.0582H7.59206C6.97539 17.0582 6.41706 16.9749 5.93373 16.7915C4.94206 16.4249 4.26706 15.6665 4.02539 14.4499C4.35872 14.5249 4.71706 14.5582 5.09206 14.5582H12.4171C14.6171 14.5582 16.0837 13.4582 16.0837 10.8915V6.59984C16.0837 6.20818 16.0504 5.8582 15.9837 5.5332C17.5671 5.86654 18.5837 6.98318 18.5837 9.09984Z" fill="#8F7235"/>
<path id="Vector_3" d="M8.74982 10.9508C9.96484 10.9508 10.9498 9.96582 10.9498 8.75079C10.9498 7.53577 9.96484 6.55078 8.74982 6.55078C7.53479 6.55078 6.5498 7.53577 6.5498 8.75079C6.5498 9.96582 7.53479 10.9508 8.74982 10.9508Z" fill="#8F7235"/>
<path id="Vector_4" d="M3.9834 6.875C3.64173 6.875 3.3584 7.15833 3.3584 7.5V10C3.3584 10.3417 3.64173 10.625 3.9834 10.625C4.32506 10.625 4.6084 10.3417 4.6084 10V7.5C4.6084 7.15833 4.3334 6.875 3.9834 6.875Z" fill="#8F7235"/>
<path id="Vector_5" d="M13.5088 6.875C13.1671 6.875 12.8838 7.15833 12.8838 7.5V10C12.8838 10.3417 13.1671 10.625 13.5088 10.625C13.8505 10.625 14.1338 10.3417 14.1338 10V7.5C14.1338 7.15833 13.8588 6.875 13.5088 6.875Z" fill="#8F7235"/>
</g>
</g>
</svg>
