<svg width="20" height="20" viewBox="0 0 20 20" fill="none" xmlns="http://www.w3.org/2000/svg">
<g id="bulk/reserve">
<path id="Vector" d="M18.3083 14.9993V15.8327C18.3083 17.2077 18.3083 18.3327 15.8083 18.3327H4.1416C1.6416 18.3327 1.6416 17.2077 1.6416 15.8327V14.9993C1.6416 14.541 2.0166 14.166 2.47493 14.166H17.4749C17.9333 14.166 18.3083 14.541 18.3083 14.9993Z" fill="#8F7235"/>
<path id="Vector2" opacity="0.4" d="M17.2663 10.8327V14.166H2.72461V10.8327C2.72461 7.63268 4.98294 4.95768 7.99128 4.31602C8.44128 4.21602 8.90794 4.16602 9.39128 4.16602H10.5996C11.0829 4.16602 11.5579 4.21602 12.0079 4.31602C15.0163 4.96602 17.2663 7.63268 17.2663 10.8327Z" fill="#8F7235"/>
<path id="Vector_2" d="M12.0837 3.74935C12.0837 3.94935 12.0587 4.13268 12.0087 4.31602C11.5587 4.21602 11.0837 4.16602 10.6003 4.16602H9.39199C8.90866 4.16602 8.44199 4.21602 7.99199 4.31602C7.94199 4.13268 7.91699 3.94935 7.91699 3.74935C7.91699 2.59935 8.85033 1.66602 10.0003 1.66602C11.1503 1.66602 12.0837 2.59935 12.0837 3.74935Z" fill="#8F7235"/>
<path id="Vector_3" d="M12.5 9.79102H7.5C7.15833 9.79102 6.875 9.50768 6.875 9.16602C6.875 8.82435 7.15833 8.54102 7.5 8.54102H12.5C12.8417 8.54102 13.125 8.82435 13.125 9.16602C13.125 9.50768 12.8417 9.79102 12.5 9.79102Z" fill="#8F7235"/>
</g>
</svg>
