<svg width="8" height="12" viewBox="0 0 8 12" fill="none" xmlns="http://www.w3.org/2000/svg">
<g id="arrows">
<path id="right" d="M1.55796 11.8338C1.4477 11.8333 1.33863 11.811 1.23707 11.7681C1.13551 11.7252 1.04347 11.6625 0.96629 11.5838C0.811081 11.4277 0.723962 11.2165 0.723962 10.9963C0.723962 10.7761 0.811081 10.5649 0.96629 10.4088L5.31629 6.00047L0.96629 1.69214C0.888591 1.61334 0.827172 1.52002 0.785541 1.41749C0.743909 1.31496 0.72288 1.20523 0.723653 1.09458C0.724427 0.98392 0.746989 0.874499 0.790051 0.772562C0.833112 0.670625 0.895829 0.578168 0.974622 0.500469C1.05342 0.42277 1.14674 0.361352 1.24927 0.31972C1.3518 0.278089 1.46153 0.257059 1.57218 0.257833C1.68284 0.258607 1.79226 0.281169 1.8942 0.32423C1.99613 0.367291 2.08859 0.430009 2.16629 0.508802L7.09962 5.45047C7.25483 5.6066 7.34195 5.81781 7.34195 6.03797C7.34195 6.25812 7.25483 6.46933 7.09962 6.62547L2.16629 11.5588C2.08932 11.6441 1.99555 11.7126 1.89086 11.7599C1.78618 11.8072 1.67283 11.8324 1.55796 11.8338Z" fill="#747678"/>
</g>
</svg>
