<svg width="20" height="20" viewBox="0 0 20 20" fill="none" xmlns="http://www.w3.org/2000/svg">
<g id="bulk/3dcube">
<path id="Vector" d="M16.1087 4.73307L10.8837 1.91641C10.3337 1.61641 9.66706 1.61641 9.11706 1.91641L3.89206 4.73307C3.50872 4.94141 3.27539 5.34141 3.27539 5.79974C3.27539 6.24974 3.50872 6.65807 3.89206 6.86641L9.11706 9.68307C9.39206 9.83307 9.70039 9.90807 10.0004 9.90807C10.3004 9.90807 10.6087 9.83307 10.8837 9.68307L16.1087 6.86641C16.4921 6.65807 16.7254 6.25807 16.7254 5.79974C16.7254 5.34141 16.4921 4.94141 16.1087 4.73307Z" fill="#8F7235"/>
<path id="Vector2" opacity="0.4" d="M8.25866 10.659L3.39199 8.22565C3.01699 8.04232 2.58366 8.05898 2.23366 8.27565C1.87533 8.50065 1.66699 8.87565 1.66699 9.29232V13.884C1.66699 14.6757 2.10866 15.3923 2.81699 15.7507L7.67533 18.184C7.84199 18.2673 8.02533 18.309 8.20866 18.309C8.42533 18.309 8.64199 18.2507 8.83366 18.134C9.19199 17.9173 9.40033 17.534 9.40033 17.1173V12.5257C9.40866 11.7257 8.96699 11.009 8.25866 10.659Z" fill="#8F7235"/>
<path id="Vector2_2" opacity="0.4" d="M17.7663 8.27512C17.4079 8.05845 16.9746 8.03345 16.6079 8.22512L11.7496 10.6585C11.0413 11.0168 10.5996 11.7251 10.5996 12.5251V17.1168C10.5996 17.5335 10.8079 17.9168 11.1663 18.1334C11.3579 18.2501 11.5746 18.3084 11.7913 18.3084C11.9746 18.3084 12.1579 18.2668 12.3246 18.1834L17.1829 15.7501C17.8913 15.3918 18.3329 14.6834 18.3329 13.8835V9.29178C18.3329 8.87512 18.1246 8.50012 17.7663 8.27512Z" fill="#8F7235"/>
</g>
</svg>
