<svg width="18" height="18" viewBox="0 0 18 18" fill="none" xmlns="http://www.w3.org/2000/svg">
<path id="Vector" fill-rule="evenodd" clip-rule="evenodd" d="M0.875 8.625C0.875 4.34479 4.34479 0.875 8.625 0.875C12.9052 0.875 16.375 4.34479 16.375 8.625C16.375 10.5401 15.6804 12.293 14.5293 13.6454L16.9419 16.0581C17.186 16.3021 17.186 16.6979 16.9419 16.9419C16.6979 17.186 16.3021 17.186 16.0581 16.9419L13.6454 14.5293C12.293 15.6804 10.5401 16.375 8.625 16.375C4.34479 16.375 0.875 12.9052 0.875 8.625ZM8.625 2.125C5.03515 2.125 2.125 5.03515 2.125 8.625C2.125 12.2149 5.03515 15.125 8.625 15.125C12.2149 15.125 15.125 12.2149 15.125 8.625C15.125 5.03515 12.2149 2.125 8.625 2.125Z" fill="#484A4D"/>
</svg>
