<svg width="20" height="20" viewBox="0 0 20 20" fill="none" xmlns="http://www.w3.org/2000/svg">
<g id="outline/search 02">
<path id="Vector" fill-rule="evenodd" clip-rule="evenodd" d="M1.875 9.625C1.875 5.34479 5.34479 1.875 9.625 1.875C13.9052 1.875 17.375 5.34479 17.375 9.625C17.375 11.5401 16.6804 13.293 15.5293 14.6454L17.9419 17.0581C18.186 17.3021 18.186 17.6979 17.9419 17.9419C17.6979 18.186 17.3021 18.186 17.0581 17.9419L14.6454 15.5293C13.293 16.6804 11.5401 17.375 9.625 17.375C5.34479 17.375 1.875 13.9052 1.875 9.625ZM9.625 3.125C6.03515 3.125 3.125 6.03515 3.125 9.625C3.125 13.2149 6.03515 16.125 9.625 16.125C13.2149 16.125 16.125 13.2149 16.125 9.625C16.125 6.03515 13.2149 3.125 9.625 3.125Z" fill="#171819" fill-opacity="0.38"/>
</g>
</svg>
