<svg width="17" height="16" viewBox="0 0 17 16" fill="none" xmlns="http://www.w3.org/2000/svg">
<g id="fill/timer">
<path id="Vector" d="M8.49973 3.09961C5.31306 3.09961 2.71973 5.69294 2.71973 8.87961C2.71973 12.0663 5.31306 14.6663 8.49973 14.6663C11.6864 14.6663 14.2797 12.0729 14.2797 8.88628C14.2797 5.69961 11.6864 3.09961 8.49973 3.09961ZM8.99973 8.66628C8.99973 8.93961 8.77306 9.16628 8.49973 9.16628C8.22639 9.16628 7.99973 8.93961 7.99973 8.66628V5.33294C7.99973 5.05961 8.22639 4.83294 8.49973 4.83294C8.77306 4.83294 8.99973 5.05961 8.99973 5.33294V8.66628Z" fill="#077DB3"/>
<path id="Vector_2" d="M10.4271 2.30065H6.57375C6.30708 2.30065 6.09375 2.08732 6.09375 1.82065C6.09375 1.55398 6.30708 1.33398 6.57375 1.33398H10.4271C10.6937 1.33398 10.9071 1.54732 10.9071 1.81398C10.9071 2.08065 10.6937 2.30065 10.4271 2.30065Z" fill="#077DB3"/>
</g>
</svg>
