<svg width="20" height="20" viewBox="0 0 20 20" fill="none" xmlns="http://www.w3.org/2000/svg">
<g id="outline/trash">
<g id="Union">
<path fill-rule="evenodd" clip-rule="evenodd" d="M6.6507 2.94935L6.47259 4.00994C5.69156 4.05235 4.91206 4.11206 4.13436 4.191L2.43436 4.35766C2.09269 4.391 1.84269 4.691 1.87603 5.041C1.90936 5.391 2.21769 5.641 2.56769 5.60766L4.26769 5.441C8.62603 4.99933 13.026 5.166 17.4344 5.60766H17.501C17.8177 5.60766 18.0927 5.366 18.1177 5.041C18.151 4.69933 17.901 4.391 17.5594 4.35766C16.2165 4.22586 14.8744 4.11781 13.5344 4.04303L13.3507 2.95768L13.3499 2.95279C13.2249 2.18613 13.0382 1.04102 11.0924 1.04102H8.90903C6.96875 1.04102 6.7843 2.14777 6.65099 2.94763L6.6507 2.94935ZM12.1257 3.16602L12.2639 3.98237C10.7558 3.9229 9.25098 3.90947 7.75118 3.9557L7.89237 3.15768L7.89363 3.15019C8.01749 2.41523 8.03702 2.29935 8.91737 2.29935H11.1007C11.984 2.29935 12.009 2.44102 12.1257 3.16602Z" fill="#DB3939"/>
<path d="M7.32581 18.9577H12.6758C15.5841 18.9577 15.7008 17.3494 15.7925 16.0494L16.3341 7.65769C16.3591 7.30769 16.0925 7.01603 15.7508 6.99103C15.4091 6.97436 15.1091 7.23269 15.0841 7.57436L14.5425 15.966C14.4591 17.2327 14.4258 17.7077 12.6758 17.7077H7.32581C5.58518 17.7077 5.55085 17.2333 5.45931 15.9683L5.45914 15.966L4.91748 7.57436C4.89248 7.23269 4.60081 6.97436 4.25081 6.99103C3.90914 7.01603 3.64248 7.31603 3.66748 7.65769L4.20914 16.0494C4.30081 17.3494 4.41748 18.9577 7.32581 18.9577Z" fill="#DB3939"/>
<path d="M11.3843 14.3743H8.60929C8.26763 14.3743 7.98429 14.091 7.98429 13.7493C7.98429 13.4077 8.26763 13.1243 8.60929 13.1243H11.3843C11.726 13.1243 12.0093 13.4077 12.0093 13.7493C12.0093 14.091 11.726 14.3743 11.3843 14.3743Z" fill="#DB3939"/>
<path d="M7.91756 11.041H12.0842C12.4259 11.041 12.7092 10.7577 12.7092 10.416C12.7092 10.0743 12.4259 9.79102 12.0842 9.79102H7.91756C7.5759 9.79102 7.29256 10.0743 7.29256 10.416C7.29256 10.7577 7.5759 11.041 7.91756 11.041Z" fill="#DB3939"/>
</g>
</g>
</svg>
