<svg width="20" height="20" viewBox="0 0 20 20" fill="none" xmlns="http://www.w3.org/2000/svg">
<g id="outline/profile-circle">
<g id="Vector">
<path fill-rule="evenodd" clip-rule="evenodd" d="M13.367 7.92433C13.3586 9.74933 11.9336 11.216 10.1253 11.2743H9.95864C8.06698 11.216 6.65031 9.741 6.65031 7.92433C6.65031 6.07433 8.15864 4.566 10.0086 4.566C11.8586 4.566 13.367 6.07433 13.367 7.92433ZM10.0003 5.80767C8.83364 5.80767 7.89198 6.75767 7.89198 7.916C7.89198 9.05767 8.78364 9.98267 9.91698 10.0243C9.94198 10.016 10.0253 10.016 10.1086 10.0243C11.2253 9.966 12.1003 9.04933 12.1086 7.916C12.1086 6.75767 11.167 5.80767 10.0003 5.80767Z" fill="#17181A"/>
<path fill-rule="evenodd" clip-rule="evenodd" d="M1.04199 9.99935C1.04199 14.9205 4.96756 18.9243 9.93816 18.9575C9.95883 18.9576 9.9795 18.9577 10.0002 18.9577C10.0187 18.9577 10.0373 18.9576 10.0558 18.9575C15.0296 18.9279 18.9587 14.9227 18.9587 9.99935C18.9587 5.05768 14.942 1.04102 10.0003 1.04102C5.05866 1.04102 1.04199 5.05768 1.04199 9.99935ZM15.8898 14.967C17.0241 13.6244 17.7087 11.8902 17.7087 9.99935C17.7087 5.74935 14.2503 2.29102 10.0003 2.29102C5.75033 2.29102 2.29199 5.74935 2.29199 9.99935C2.29199 11.8897 2.97617 13.6234 4.10988 14.9659C4.40847 14.4079 4.88229 13.9002 5.50852 13.4827C7.99186 11.8327 12.0169 11.8327 14.4919 13.4827C15.1176 13.905 15.5912 14.4111 15.8898 14.967ZM10.1494 17.7063C11.9042 17.6724 13.5883 17.0425 14.9335 15.916C14.7835 15.4077 14.3835 14.916 13.7919 14.516C11.7419 13.1494 8.26686 13.1494 6.20019 14.516C5.60852 14.916 5.21686 15.4077 5.06686 15.916C6.40525 17.0367 8.07907 17.666 9.82416 17.7057C9.87447 17.7068 9.9249 17.7075 9.97543 17.7076C9.98373 17.7077 9.99203 17.7077 10.0003 17.7077C10.0501 17.7077 10.0998 17.7072 10.1494 17.7063Z" fill="#17181A"/>
</g>
</g>
</svg>
