<svg width="30" height="30" viewBox="0 0 30 30" fill="none" xmlns="http://www.w3.org/2000/svg">
<g id="Icon/Outline/add">
<g id="add">
<path id="Vector" d="M18.094 18.977L11.0229 11.9059C10.7813 11.6643 10.7813 11.2636 11.0229 11.022C11.2645 10.7804 11.6652 10.7804 11.9068 11.022L18.9779 18.0931C19.2194 18.3347 19.2194 18.7354 18.9779 18.977C18.7363 19.2186 18.3356 19.2186 18.094 18.977Z" fill="white"/>
<path id="Vector_2" d="M11.0221 18.977C10.7806 18.7354 10.7806 18.3347 11.0221 18.0931L18.0932 11.022C18.3348 10.7804 18.7355 10.7804 18.9771 11.022C19.2187 11.2636 19.2187 11.6643 18.9771 11.9059L11.906 18.977C11.6644 19.2186 11.2637 19.2186 11.0221 18.977Z" fill="white"/>
</g>
</g>
</svg>
